<?xml version="1.0" encoding="utf-8"?><!-- Uploaded to: SVG Repo, www.svgrepo.com, Generator: SVG Repo Mixer Tools -->
<svg viewBox="0 0 24 24" fill="none" xmlns="http://www.w3.org/2000/svg">
<path fill-rule="evenodd" clip-rule="evenodd" d="M23 4C23 2.34315 21.6569 1 20 1H8C6.34315 1 5 2.34315 5 4V5H4C2.34315 5 1 6.34315 1 8V20C1 21.6569 2.34315 23 4 23H16C17.6569 23 19 21.6569 19 20V19H20C21.6569 19 23 17.6569 23 16V4ZM19 17H20C20.5523 17 21 16.5523 21 16V4C21 3.44772 20.5523 3 20 3H8C7.44772 3 7 3.44772 7 4V5H16C17.6569 5 19 6.34315 19 8V17ZM16 7C16.5523 7 17 7.44772 17 8V20C17 20.5523 16.5523 21 16 21H4C3.44772 21 3 20.5523 3 20V8C3 7.44772 3.44772 7 4 7H16Z" fill="currentColor"/>
</svg>