<svg version="1.1" xmlns="http://www.w3.org/2000/svg" xmlns:xlink="http://www.w3.org/1999/xlink" width="332.04741" height="284.61207" viewBox="0,0,332.04741,284.61207"><g transform="translate(-73.97629,-37.69397)"><g data-paper-data="{&quot;isPaintingLayer&quot;:true}" fill-rule="nonzero" stroke="none" stroke-width="1" stroke-linecap="butt" stroke-linejoin="miter" stroke-miterlimit="10" stroke-dasharray="" stroke-dashoffset="0" style="mix-blend-mode: normal"><path d="M162.91756,203.71767l14.2306,23.71767h-28.46121z" fill="#000000"/><path d="M406.02371,73.27047v213.45905c0,20.16002 -15.41649,35.57651 -35.57651,35.57651h-118.58836h-23.71767h-118.58836c-20.16002,0 -35.57651,-15.41649 -35.57651,-35.57651v-213.45905c0,-20.16002 15.41649,-35.57651 35.57651,-35.57651h118.58836h23.71767h118.58836c20.16002,0 35.57651,15.41649 35.57651,35.57651zM156.98815,85.12931c0,3.55765 1.18588,5.92942 3.55765,8.30119c2.37177,2.37177 4.74353,3.55765 8.30119,3.55765c3.55765,0 5.92942,-1.18588 8.30119,-3.55765c2.37177,-2.37177 3.55765,-4.74353 3.55765,-8.30119c0,-1.18588 0,-3.55765 -1.18588,-4.74353c0,-1.18588 -1.18588,-2.37177 -2.37177,-3.55765c-3.55765,-3.55765 -8.30119,-4.74353 -13.04472,-2.37177c-1.18588,0 -2.37177,1.18588 -3.55765,2.37177c-1.18588,1.18588 -1.18588,2.37177 -2.37177,3.55765c-1.18588,1.18588 -1.18588,3.55765 -1.18588,4.74353zM121.41164,85.12931c0,3.55765 1.18588,5.92942 3.55765,8.30119c2.37177,2.37177 4.74353,3.55765 8.30119,3.55765c3.55765,0 5.92942,-1.18588 8.30119,-3.55765c1.18588,-1.18588 2.37177,-2.37177 2.37177,-3.55765c1.18588,-1.18588 1.18588,-3.55765 1.18588,-4.74353c0,-1.18588 0,-3.55765 -1.18588,-4.74353c0,-1.18588 -1.18588,-2.37177 -2.37177,-3.55765l-1.18588,-1.18588c-1.18588,0 -1.18588,-1.18588 -2.37177,-1.18588c-1.18588,-1.18588 -1.18588,-1.18588 -2.37177,-1.18588c-1.18588,0 -3.55765,0 -4.74353,0c-1.18588,0 -1.18588,0 -2.37177,1.18588c-1.18588,0 -1.18588,1.18588 -2.37177,1.18588l-1.18588,1.18588c-2.37177,2.37177 -3.55765,4.74353 -3.55765,8.30119zM216.28233,85.12931c0,-1.18588 0,-3.55765 -1.18588,-4.74353c0,-1.18588 -1.18588,-2.37177 -2.37177,-3.55765c-4.74353,-4.74353 -11.85884,-4.74353 -16.60237,0c-1.18588,1.18588 -1.18588,2.37177 -2.37177,3.55765c-1.18588,1.18588 -1.18588,3.55765 -1.18588,4.74353c0,1.18588 0,3.55765 1.18588,4.74353c0,1.18588 1.18588,2.37177 2.37177,3.55765c1.18588,1.18588 2.37177,1.18588 3.55765,2.37177c1.18588,1.18588 3.55765,1.18588 4.74353,1.18588c3.55765,0 5.92942,-1.18588 8.30119,-3.55765c1.18588,-1.18588 1.18588,-2.37177 2.37177,-3.55765c1.18588,-1.18588 1.18588,-3.55765 1.18588,-4.74353z" fill="#000000"/><g fill="none" font-family="sans-serif" font-weight="normal" font-size="12" text-anchor="start"/></g></g></svg>