<svg version="1.1" xmlns="http://www.w3.org/2000/svg" xmlns:xlink="http://www.w3.org/1999/xlink" width="162.00555" height="85.428" viewBox="0,0,162.00555,85.428"><defs><radialGradient cx="201.38299" cy="182.54613" r="30.83563" gradientUnits="userSpaceOnUse" id="color-1"><stop offset="0" stop-color="#9654dd"/><stop offset="1" stop-color="#8840d4"/></radialGradient></defs><g transform="translate(-158.99722,-137.28599)"><g data-paper-data="{&quot;isPaintingLayer&quot;:true}" fill-rule="nonzero" stroke="none" stroke-linecap="butt" stroke-linejoin="miter" stroke-miterlimit="10" stroke-dasharray="" stroke-dashoffset="0" style="mix-blend-mode: normal"><path d="M280.12926,137.37096c16.93096,0.68825 30.42066,9.6355 37.44081,24.91466c4.81775,10.4614 4.54245,26.29116 -0.68825,36.75256c-7.02015,14.3156 -21.74871,23.40051 -38.12906,23.67581c-4.9554,0 -11.14965,-0.8259 -13.765,-1.9271c-2.61535,-0.96355 -17.61921,-9.22255 -33.44896,-18.30746l-28.49356,-16.38036l-20.92281,12.25085c-11.5626,6.6072 -21.47341,12.25085 -22.02401,12.52615c-0.5506,0.2753 -1.1012,-13.4897 -1.1012,-30.55831c0,-17.06861 0.41295,-31.10891 0.96355,-31.10891c0.41295,0 9.9108,5.2307 21.06046,11.70025c11.14965,6.46955 21.06046,11.70025 22.02401,11.70025c0.96355,0 14.5909,-7.29545 30.14536,-16.38036c15.55445,-8.94725 30.28301,-17.06861 32.48541,-17.89451c2.34005,-0.8259 8.8096,-1.23885 14.45325,-0.96355zM274.89854,156.09136c-8.12135,3.3036 -5.09305,16.51801 3.8542,16.51801c7.7084,0 11.42495,-11.2873 5.2307,-15.6921c-3.44125,-2.4777 -4.54245,-2.61535 -9.0849,-0.8259z" fill="#9654dd" stroke-width="1"/><path d="M280.12926,137.37096c16.93096,0.68825 30.42066,9.6355 37.44081,24.91466c2.50855,5.44713 -8.85673,28.07001 -39.41179,29.28567c-28.12696,1.11904 -75.57488,-18.96191 -75.11304,-18.96191c0.96355,0 14.5909,-7.29545 30.14536,-16.38036c15.55445,-8.94725 30.28301,-17.06861 32.48541,-17.89451c2.34005,-0.8259 8.8096,-1.23885 14.45325,-0.96355zM274.89854,156.09136c-8.12135,3.3036 -5.09305,16.51801 3.8542,16.51801c7.7084,0 11.42495,-11.2873 5.2307,-15.6921c-3.44125,-2.4777 -4.54245,-2.61535 -9.0849,-0.8259z" fill="#8840d4" stroke-width="1"/><path d="M274.87661,156.04643c4.54245,-1.78945 5.69641,-1.64623 9.13766,0.83147c6.19425,4.4048 2.44754,15.78146 -5.26086,15.78146c-8.94725,0 -11.99815,-13.30934 -3.8768,-16.61294z" data-paper-data="{&quot;noHover&quot;:false,&quot;origItem&quot;:[&quot;Path&quot;,{&quot;applyMatrix&quot;:true,&quot;segments&quot;:[[[274.89854,156.09136],[0,0],[-8.12135,3.3036]],[[278.75274,172.60937],[-8.94725,0],[7.7084,0]],[[283.98344,156.91727],[6.19425,4.4048],[-3.44125,-2.4777]],[[274.89854,156.09137],[4.54245,-1.78945],[0,0]]],&quot;closed&quot;:true,&quot;fillColor&quot;:[0,0,0,1]}]}" fill="#ffffff" stroke-width="0.5"/><path d="M204.4217,186.09907l-20.92281,12.25085c-11.5626,6.6072 -21.47341,12.25085 -22.02401,12.52615c-0.5506,0.2753 -1.1012,-13.4897 -1.1012,-30.55831c0,-17.06861 0.41295,-31.10891 0.96355,-31.10891c0.41295,0 9.9108,5.2307 21.06046,11.70025c11.14965,6.46955 21.06046,11.70025 22.02401,11.70025c0.96355,0 0,13.4897 0,13.4897z" fill="url(#color-1)" stroke-width="1"/></g></g></svg>